<svg xmlns="http://www.w3.org/2000/svg" xmlns:xlink="http://www.w3.org/1999/xlink" width="500" zoomAndPan="magnify" viewBox="0 0 375 374.999991" height="500" preserveAspectRatio="xMidYMid meet" version="1.0"><defs><g/><clipPath id="c46bffaa43"><path d="M 126.738281 101.828125 L 248.238281 101.828125 L 248.238281 219.578125 L 126.738281 219.578125 Z M 126.738281 101.828125 " clip-rule="nonzero"/></clipPath></defs><rect x="-37.5" width="450" fill="#ffffff" y="-37.499999" height="449.999989" fill-opacity="1"/><g clip-path="url(#c46bffaa43)"><path fill="#008037" d="M 126.738281 101.738281 L 126.738281 197.714844 C 126.738281 209.96875 136.671875 219.902344 148.925781 219.902344 L 226.074219 219.902344 C 238.328125 219.902344 248.261719 209.96875 248.261719 197.714844 L 248.261719 101.738281 L 237.164062 101.738281 C 231.039062 101.738281 226.070312 106.703125 226.070312 112.828125 L 226.070312 197.714844 L 148.925781 197.714844 L 148.925781 123.921875 C 148.925781 111.671875 138.992188 101.738281 126.738281 101.738281 Z M 126.738281 101.738281 " fill-opacity="1" fill-rule="nonzero"/></g><path fill="#1986c8" d="M 153.363281 189.769531 C 155.476562 190.042969 157.5625 190.171875 159.609375 190.171875 C 171.3125 190.171875 181.984375 186.121094 191.339844 182.566406 C 203.824219 177.824219 212.617188 174.851562 221.636719 177.160156 L 221.636719 154.632812 C 207.378906 152.753906 194.511719 157.632812 183.464844 161.824219 C 171.054688 166.539062 162.304688 169.5 153.363281 167.25 Z M 153.363281 189.769531 " fill-opacity="1" fill-rule="nonzero"/><path fill="#1eb8d1" d="M 153.363281 148.582031 C 155.476562 148.855469 157.5625 148.984375 159.609375 148.984375 C 171.3125 148.984375 181.984375 144.933594 191.339844 141.378906 C 203.824219 136.640625 212.617188 133.667969 221.636719 135.972656 L 221.636719 113.445312 C 207.378906 111.566406 194.511719 116.445312 183.464844 120.640625 C 171.054688 125.355469 162.304688 128.3125 153.363281 126.0625 Z M 153.363281 148.582031 " fill-opacity="1" fill-rule="nonzero"/><g fill="#272830" fill-opacity="1"><g transform="translate(127.836823, 256.270574)"><g><path d="M 9.75 -18.203125 C 11 -18.203125 12.109375 -17.96875 13.078125 -17.5 C 14.046875 -17.03125 14.863281 -16.375 15.53125 -15.53125 C 16.195312 -14.695312 16.695312 -13.726562 17.03125 -12.625 C 17.375 -11.519531 17.546875 -10.34375 17.546875 -9.09375 C 17.546875 -7.414062 17.242188 -5.882812 16.640625 -4.5 C 16.035156 -3.125 15.15625 -2.03125 14 -1.21875 C 12.84375 -0.40625 11.425781 0 9.75 0 L 3.53125 0 C 3.082031 0 2.707031 -0.148438 2.40625 -0.453125 C 2.101562 -0.753906 1.953125 -1.132812 1.953125 -1.59375 L 1.953125 -16.609375 C 1.953125 -17.066406 2.101562 -17.445312 2.40625 -17.75 C 2.707031 -18.050781 3.082031 -18.203125 3.53125 -18.203125 Z M 9.484375 -2.984375 C 10.578125 -2.984375 11.46875 -3.265625 12.15625 -3.828125 C 12.851562 -4.398438 13.363281 -5.148438 13.6875 -6.078125 C 14.007812 -7.003906 14.171875 -8.007812 14.171875 -9.09375 C 14.171875 -9.914062 14.078125 -10.691406 13.890625 -11.421875 C 13.710938 -12.160156 13.429688 -12.8125 13.046875 -13.375 C 12.671875 -13.9375 12.1875 -14.378906 11.59375 -14.703125 C 11.007812 -15.035156 10.304688 -15.203125 9.484375 -15.203125 L 4.9375 -15.203125 L 5.203125 -15.4375 L 5.203125 -2.703125 L 5.046875 -2.984375 Z M 9.484375 -2.984375 "/></g></g></g><g fill="#272830" fill-opacity="1"><g transform="translate(145.90126, 256.270574)"><g><path d="M 3.609375 -18.203125 C 4.023438 -18.203125 4.394531 -18.050781 4.71875 -17.75 C 5.039062 -17.445312 5.203125 -17.066406 5.203125 -16.609375 L 5.203125 -1.59375 C 5.203125 -1.132812 5.035156 -0.753906 4.703125 -0.453125 C 4.378906 -0.148438 4 0 3.5625 0 C 3.070312 0 2.679688 -0.148438 2.390625 -0.453125 C 2.097656 -0.753906 1.953125 -1.132812 1.953125 -1.59375 L 1.953125 -16.609375 C 1.953125 -17.066406 2.109375 -17.445312 2.421875 -17.75 C 2.734375 -18.050781 3.128906 -18.203125 3.609375 -18.203125 Z M 15.125 -18.203125 C 15.613281 -18.203125 16.003906 -18.050781 16.296875 -17.75 C 16.597656 -17.445312 16.75 -17.066406 16.75 -16.609375 L 16.75 -1.59375 C 16.75 -1.132812 16.59375 -0.753906 16.28125 -0.453125 C 15.976562 -0.148438 15.578125 0 15.078125 0 C 14.660156 0 14.289062 -0.148438 13.96875 -0.453125 C 13.65625 -0.753906 13.5 -1.132812 13.5 -1.59375 L 13.5 -16.609375 C 13.5 -17.066406 13.660156 -17.445312 13.984375 -17.75 C 14.316406 -18.050781 14.695312 -18.203125 15.125 -18.203125 Z M 3.53125 -10.640625 L 15.125 -10.640625 L 15.125 -7.640625 L 3.53125 -7.640625 Z M 3.53125 -10.640625 "/></g></g></g><g fill="#272830" fill-opacity="1"><g transform="translate(164.069666, 256.270574)"><g><path d="M 11.90625 -2.859375 C 12.320312 -2.859375 12.664062 -2.71875 12.9375 -2.4375 C 13.21875 -2.164062 13.359375 -1.820312 13.359375 -1.40625 C 13.359375 -1.007812 13.21875 -0.675781 12.9375 -0.40625 C 12.664062 -0.132812 12.320312 0 11.90625 0 L 3.0625 0 C 2.613281 0 2.257812 -0.132812 2 -0.40625 C 1.738281 -0.6875 1.609375 -1.046875 1.609375 -1.484375 C 1.609375 -1.910156 1.765625 -2.289062 2.078125 -2.625 L 7.75 -8.6875 C 8.382812 -9.375 8.890625 -10.082031 9.265625 -10.8125 C 9.640625 -11.539062 9.828125 -12.175781 9.828125 -12.71875 C 9.828125 -13.582031 9.570312 -14.273438 9.0625 -14.796875 C 8.5625 -15.328125 7.898438 -15.59375 7.078125 -15.59375 C 6.742188 -15.59375 6.398438 -15.515625 6.046875 -15.359375 C 5.703125 -15.203125 5.367188 -14.984375 5.046875 -14.703125 C 4.734375 -14.429688 4.4375 -14.113281 4.15625 -13.75 C 3.945312 -13.476562 3.738281 -13.304688 3.53125 -13.234375 C 3.320312 -13.160156 3.132812 -13.125 2.96875 -13.125 C 2.582031 -13.125 2.226562 -13.265625 1.90625 -13.546875 C 1.59375 -13.835938 1.4375 -14.175781 1.4375 -14.5625 C 1.4375 -14.851562 1.535156 -15.132812 1.734375 -15.40625 C 1.929688 -15.6875 2.175781 -15.976562 2.46875 -16.28125 C 2.90625 -16.707031 3.390625 -17.082031 3.921875 -17.40625 C 4.460938 -17.738281 5.019531 -17.992188 5.59375 -18.171875 C 6.164062 -18.359375 6.71875 -18.453125 7.25 -18.453125 C 8.414062 -18.453125 9.425781 -18.222656 10.28125 -17.765625 C 11.132812 -17.304688 11.796875 -16.65625 12.265625 -15.8125 C 12.734375 -14.976562 12.96875 -13.988281 12.96875 -12.84375 C 12.96875 -11.882812 12.6875 -10.820312 12.125 -9.65625 C 11.5625 -8.488281 10.804688 -7.394531 9.859375 -6.375 L 6.34375 -2.625 L 6.0625 -2.859375 Z M 11.90625 -2.859375 "/></g></g></g><g fill="#272830" fill-opacity="1"><g transform="translate(178.339231, 256.270574)"><g><path d="M 18.6875 -9.09375 C 18.6875 -7.800781 18.46875 -6.585938 18.03125 -5.453125 C 17.601562 -4.328125 16.992188 -3.335938 16.203125 -2.484375 C 15.421875 -1.628906 14.488281 -0.957031 13.40625 -0.46875 C 12.320312 0.0195312 11.140625 0.265625 9.859375 0.265625 C 8.578125 0.265625 7.394531 0.0195312 6.3125 -0.46875 C 5.238281 -0.957031 4.304688 -1.628906 3.515625 -2.484375 C 2.734375 -3.335938 2.125 -4.328125 1.6875 -5.453125 C 1.257812 -6.585938 1.046875 -7.800781 1.046875 -9.09375 C 1.046875 -10.394531 1.257812 -11.609375 1.6875 -12.734375 C 2.125 -13.867188 2.734375 -14.863281 3.515625 -15.71875 C 4.304688 -16.570312 5.238281 -17.238281 6.3125 -17.71875 C 7.394531 -18.207031 8.578125 -18.453125 9.859375 -18.453125 C 11.140625 -18.453125 12.320312 -18.207031 13.40625 -17.71875 C 14.488281 -17.238281 15.421875 -16.570312 16.203125 -15.71875 C 16.992188 -14.863281 17.601562 -13.867188 18.03125 -12.734375 C 18.46875 -11.609375 18.6875 -10.394531 18.6875 -9.09375 Z M 15.3125 -9.09375 C 15.3125 -10.257812 15.078125 -11.3125 14.609375 -12.25 C 14.140625 -13.195312 13.5 -13.945312 12.6875 -14.5 C 11.875 -15.0625 10.929688 -15.34375 9.859375 -15.34375 C 8.773438 -15.34375 7.828125 -15.0625 7.015625 -14.5 C 6.203125 -13.945312 5.566406 -13.203125 5.109375 -12.265625 C 4.648438 -11.335938 4.421875 -10.28125 4.421875 -9.09375 C 4.421875 -7.9375 4.648438 -6.882812 5.109375 -5.9375 C 5.566406 -5 6.203125 -4.25 7.015625 -3.6875 C 7.828125 -3.132812 8.773438 -2.859375 9.859375 -2.859375 C 10.929688 -2.859375 11.875 -3.132812 12.6875 -3.6875 C 13.5 -4.25 14.140625 -5 14.609375 -5.9375 C 15.078125 -6.882812 15.3125 -7.9375 15.3125 -9.09375 Z M 15.3125 -9.09375 "/></g></g></g><g fill="#272830" fill-opacity="1"><g transform="translate(197.54732, 256.270574)"><g><path d="M 14.6875 -17.3125 C 15.132812 -17.09375 15.394531 -16.738281 15.46875 -16.25 C 15.550781 -15.757812 15.429688 -15.316406 15.109375 -14.921875 C 14.878906 -14.609375 14.585938 -14.4375 14.234375 -14.40625 C 13.878906 -14.375 13.519531 -14.441406 13.15625 -14.609375 C 12.738281 -14.796875 12.300781 -14.941406 11.84375 -15.046875 C 11.382812 -15.148438 10.90625 -15.203125 10.40625 -15.203125 C 9.46875 -15.203125 8.628906 -15.054688 7.890625 -14.765625 C 7.148438 -14.472656 6.519531 -14.050781 6 -13.5 C 5.476562 -12.957031 5.082031 -12.3125 4.8125 -11.5625 C 4.550781 -10.820312 4.421875 -10 4.421875 -9.09375 C 4.421875 -8.039062 4.570312 -7.125 4.875 -6.34375 C 5.175781 -5.5625 5.59375 -4.910156 6.125 -4.390625 C 6.664062 -3.867188 7.300781 -3.484375 8.03125 -3.234375 C 8.757812 -2.984375 9.550781 -2.859375 10.40625 -2.859375 C 10.875 -2.859375 11.335938 -2.898438 11.796875 -2.984375 C 12.265625 -3.078125 12.71875 -3.234375 13.15625 -3.453125 C 13.519531 -3.628906 13.878906 -3.691406 14.234375 -3.640625 C 14.585938 -3.585938 14.882812 -3.40625 15.125 -3.09375 C 15.476562 -2.65625 15.601562 -2.207031 15.5 -1.75 C 15.40625 -1.289062 15.144531 -0.957031 14.71875 -0.75 C 14.269531 -0.53125 13.804688 -0.34375 13.328125 -0.1875 C 12.847656 -0.0390625 12.363281 0.0664062 11.875 0.140625 C 11.394531 0.222656 10.90625 0.265625 10.40625 0.265625 C 9.15625 0.265625 7.96875 0.0664062 6.84375 -0.328125 C 5.726562 -0.734375 4.734375 -1.328125 3.859375 -2.109375 C 2.984375 -2.890625 2.296875 -3.863281 1.796875 -5.03125 C 1.296875 -6.195312 1.046875 -7.550781 1.046875 -9.09375 C 1.046875 -10.4375 1.273438 -11.671875 1.734375 -12.796875 C 2.191406 -13.921875 2.835938 -14.894531 3.671875 -15.71875 C 4.515625 -16.539062 5.507812 -17.179688 6.65625 -17.640625 C 7.800781 -18.097656 9.050781 -18.328125 10.40625 -18.328125 C 11.164062 -18.328125 11.910156 -18.238281 12.640625 -18.0625 C 13.367188 -17.894531 14.050781 -17.644531 14.6875 -17.3125 Z M 14.6875 -17.3125 "/></g></g></g><g fill="#272830" fill-opacity="1"><g transform="translate(213.324436, 256.270574)"><g><path d="M 18.6875 -9.09375 C 18.6875 -7.800781 18.46875 -6.585938 18.03125 -5.453125 C 17.601562 -4.328125 16.992188 -3.335938 16.203125 -2.484375 C 15.421875 -1.628906 14.488281 -0.957031 13.40625 -0.46875 C 12.320312 0.0195312 11.140625 0.265625 9.859375 0.265625 C 8.578125 0.265625 7.394531 0.0195312 6.3125 -0.46875 C 5.238281 -0.957031 4.304688 -1.628906 3.515625 -2.484375 C 2.734375 -3.335938 2.125 -4.328125 1.6875 -5.453125 C 1.257812 -6.585938 1.046875 -7.800781 1.046875 -9.09375 C 1.046875 -10.394531 1.257812 -11.609375 1.6875 -12.734375 C 2.125 -13.867188 2.734375 -14.863281 3.515625 -15.71875 C 4.304688 -16.570312 5.238281 -17.238281 6.3125 -17.71875 C 7.394531 -18.207031 8.578125 -18.453125 9.859375 -18.453125 C 11.140625 -18.453125 12.320312 -18.207031 13.40625 -17.71875 C 14.488281 -17.238281 15.421875 -16.570312 16.203125 -15.71875 C 16.992188 -14.863281 17.601562 -13.867188 18.03125 -12.734375 C 18.46875 -11.609375 18.6875 -10.394531 18.6875 -9.09375 Z M 15.3125 -9.09375 C 15.3125 -10.257812 15.078125 -11.3125 14.609375 -12.25 C 14.140625 -13.195312 13.5 -13.945312 12.6875 -14.5 C 11.875 -15.0625 10.929688 -15.34375 9.859375 -15.34375 C 8.773438 -15.34375 7.828125 -15.0625 7.015625 -14.5 C 6.203125 -13.945312 5.566406 -13.203125 5.109375 -12.265625 C 4.648438 -11.335938 4.421875 -10.28125 4.421875 -9.09375 C 4.421875 -7.9375 4.648438 -6.882812 5.109375 -5.9375 C 5.566406 -5 6.203125 -4.25 7.015625 -3.6875 C 7.828125 -3.132812 8.773438 -2.859375 9.859375 -2.859375 C 10.929688 -2.859375 11.875 -3.132812 12.6875 -3.6875 C 13.5 -4.25 14.140625 -5 14.609375 -5.9375 C 15.078125 -6.882812 15.3125 -7.9375 15.3125 -9.09375 Z M 15.3125 -9.09375 "/></g></g></g><g fill="#272830" fill-opacity="1"><g transform="translate(232.53253, 256.270574)"><g><path d="M 11.984375 -3.046875 C 12.429688 -3.046875 12.804688 -2.898438 13.109375 -2.609375 C 13.421875 -2.328125 13.578125 -1.960938 13.578125 -1.515625 C 13.578125 -1.078125 13.421875 -0.710938 13.109375 -0.421875 C 12.804688 -0.140625 12.429688 0 11.984375 0 L 3.53125 0 C 3.082031 0 2.707031 -0.148438 2.40625 -0.453125 C 2.101562 -0.753906 1.953125 -1.132812 1.953125 -1.59375 L 1.953125 -16.609375 C 1.953125 -17.066406 2.109375 -17.445312 2.421875 -17.75 C 2.734375 -18.050781 3.128906 -18.203125 3.609375 -18.203125 C 4.023438 -18.203125 4.394531 -18.050781 4.71875 -17.75 C 5.039062 -17.445312 5.203125 -17.066406 5.203125 -16.609375 L 5.203125 -2.59375 L 4.625 -3.046875 Z M 11.984375 -3.046875 "/></g></g></g><g fill="#272830" fill-opacity="1"><g transform="translate(127.038582, 269.870401)"><g><path d="M 1.71875 -0.515625 C 1.8125 -0.515625 1.894531 -0.519531 1.96875 -0.53125 C 2.050781 -0.550781 2.117188 -0.570312 2.171875 -0.59375 C 2.234375 -0.613281 2.28125 -0.640625 2.3125 -0.671875 C 2.351562 -0.703125 2.390625 -0.726562 2.421875 -0.75 C 2.453125 -0.78125 2.476562 -0.800781 2.5 -0.8125 C 2.519531 -0.832031 2.546875 -0.84375 2.578125 -0.84375 C 2.597656 -0.84375 2.613281 -0.835938 2.625 -0.828125 C 2.632812 -0.816406 2.644531 -0.804688 2.65625 -0.796875 L 2.890625 -0.515625 C 2.734375 -0.335938 2.546875 -0.195312 2.328125 -0.09375 C 2.117188 0 1.878906 0.046875 1.609375 0.046875 C 1.378906 0.046875 1.175781 0.00390625 1 -0.078125 C 0.832031 -0.160156 0.6875 -0.269531 0.5625 -0.40625 C 0.445312 -0.550781 0.359375 -0.71875 0.296875 -0.90625 C 0.234375 -1.09375 0.203125 -1.300781 0.203125 -1.53125 C 0.203125 -1.738281 0.222656 -1.9375 0.265625 -2.125 C 0.316406 -2.3125 0.382812 -2.484375 0.46875 -2.640625 C 0.550781 -2.796875 0.648438 -2.9375 0.765625 -3.0625 C 0.878906 -3.1875 1.003906 -3.289062 1.140625 -3.375 C 1.285156 -3.46875 1.441406 -3.535156 1.609375 -3.578125 C 1.773438 -3.628906 1.945312 -3.65625 2.125 -3.65625 C 2.25 -3.65625 2.363281 -3.640625 2.46875 -3.609375 C 2.582031 -3.585938 2.679688 -3.554688 2.765625 -3.515625 C 2.859375 -3.472656 2.941406 -3.421875 3.015625 -3.359375 C 3.085938 -3.296875 3.148438 -3.226562 3.203125 -3.15625 L 2.984375 -2.890625 C 2.960938 -2.867188 2.941406 -2.847656 2.921875 -2.828125 C 2.898438 -2.816406 2.875 -2.8125 2.84375 -2.8125 C 2.800781 -2.8125 2.765625 -2.828125 2.734375 -2.859375 C 2.703125 -2.890625 2.660156 -2.921875 2.609375 -2.953125 C 2.554688 -2.992188 2.488281 -3.023438 2.40625 -3.046875 C 2.320312 -3.078125 2.21875 -3.09375 2.09375 -3.09375 C 1.914062 -3.09375 1.75 -3.054688 1.59375 -2.984375 C 1.445312 -2.921875 1.316406 -2.820312 1.203125 -2.6875 C 1.097656 -2.5625 1.015625 -2.40625 0.953125 -2.21875 C 0.890625 -2.03125 0.859375 -1.820312 0.859375 -1.59375 C 0.859375 -1.414062 0.878906 -1.257812 0.921875 -1.125 C 0.972656 -1 1.035156 -0.890625 1.109375 -0.796875 C 1.179688 -0.703125 1.269531 -0.628906 1.375 -0.578125 C 1.476562 -0.535156 1.59375 -0.515625 1.71875 -0.515625 Z M 1.71875 -0.515625 "/></g></g></g><g fill="#272830" fill-opacity="1"><g transform="translate(130.741107, 269.870401)"><g><path d="M 1.609375 -0.515625 C 1.722656 -0.515625 1.828125 -0.535156 1.921875 -0.578125 C 2.023438 -0.628906 2.113281 -0.691406 2.1875 -0.765625 C 2.257812 -0.847656 2.316406 -0.945312 2.359375 -1.0625 C 2.410156 -1.175781 2.441406 -1.300781 2.453125 -1.4375 L 2.71875 -3.609375 L 3.375 -3.609375 L 3.109375 -1.4375 C 3.078125 -1.226562 3.019531 -1.03125 2.9375 -0.84375 C 2.851562 -0.664062 2.742188 -0.507812 2.609375 -0.375 C 2.472656 -0.25 2.3125 -0.144531 2.125 -0.0625 C 1.945312 0.0078125 1.75 0.046875 1.53125 0.046875 C 1.320312 0.046875 1.132812 0.0078125 0.96875 -0.0625 C 0.800781 -0.144531 0.664062 -0.25 0.5625 -0.375 C 0.46875 -0.507812 0.398438 -0.664062 0.359375 -0.84375 C 0.316406 -1.03125 0.304688 -1.226562 0.328125 -1.4375 L 0.59375 -3.609375 L 1.234375 -3.609375 L 0.96875 -1.4375 C 0.957031 -1.300781 0.957031 -1.175781 0.96875 -1.0625 C 0.988281 -0.945312 1.023438 -0.847656 1.078125 -0.765625 C 1.140625 -0.691406 1.210938 -0.628906 1.296875 -0.578125 C 1.378906 -0.535156 1.484375 -0.515625 1.609375 -0.515625 Z M 1.609375 -0.515625 "/></g></g></g><g fill="#272830" fill-opacity="1"><g transform="translate(134.798641, 269.870401)"><g><path d="M 0.84375 0 L 0.1875 0 L 0.625 -3.609375 L 1.28125 -3.609375 Z M 0.84375 0 "/></g></g></g><g fill="#272830" fill-opacity="1"><g transform="translate(136.808652, 269.870401)"><g><path d="M 3.40625 -2.046875 C 3.40625 -1.742188 3.351562 -1.46875 3.25 -1.21875 C 3.15625 -0.96875 3.019531 -0.75 2.84375 -0.5625 C 2.675781 -0.382812 2.472656 -0.242188 2.234375 -0.140625 C 2.003906 -0.046875 1.75 0 1.46875 0 L 0.1875 0 L 0.640625 -3.609375 L 1.90625 -3.609375 C 2.132812 -3.609375 2.34375 -3.566406 2.53125 -3.484375 C 2.71875 -3.410156 2.875 -3.304688 3 -3.171875 C 3.125 -3.035156 3.222656 -2.867188 3.296875 -2.671875 C 3.367188 -2.484375 3.40625 -2.273438 3.40625 -2.046875 Z M 2.734375 -2.03125 C 2.734375 -2.195312 2.710938 -2.34375 2.671875 -2.46875 C 2.640625 -2.601562 2.582031 -2.71875 2.5 -2.8125 C 2.425781 -2.90625 2.332031 -2.972656 2.21875 -3.015625 C 2.113281 -3.066406 1.988281 -3.09375 1.84375 -3.09375 L 1.234375 -3.09375 L 0.90625 -0.515625 L 1.53125 -0.515625 C 1.707031 -0.515625 1.867188 -0.550781 2.015625 -0.625 C 2.171875 -0.695312 2.300781 -0.796875 2.40625 -0.921875 C 2.507812 -1.054688 2.585938 -1.21875 2.640625 -1.40625 C 2.703125 -1.59375 2.734375 -1.800781 2.734375 -2.03125 Z M 2.734375 -2.03125 "/></g></g></g><g fill="#272830" fill-opacity="1"><g transform="translate(140.948686, 269.870401)"><g><path d="M 2.125 -1.359375 L 1.890625 -2.59375 C 1.878906 -2.65625 1.863281 -2.722656 1.84375 -2.796875 C 1.832031 -2.867188 1.820312 -2.953125 1.8125 -3.046875 C 1.78125 -2.953125 1.75 -2.867188 1.71875 -2.796875 C 1.6875 -2.722656 1.65625 -2.65625 1.625 -2.59375 L 1.078125 -1.359375 Z M 3.078125 0 L 2.5625 0 C 2.507812 0 2.46875 -0.0078125 2.4375 -0.03125 C 2.40625 -0.0625 2.382812 -0.0976562 2.375 -0.140625 L 2.21875 -0.90625 L 0.875 -0.90625 L 0.546875 -0.140625 C 0.523438 -0.109375 0.492188 -0.078125 0.453125 -0.046875 C 0.410156 -0.015625 0.363281 0 0.3125 0 L -0.203125 0 L 1.546875 -3.609375 L 2.203125 -3.609375 Z M 3.078125 0 "/></g></g></g><g fill="#272830" fill-opacity="1"><g transform="translate(144.798714, 269.870401)"><g><path d="M 4.265625 -3.609375 L 3.828125 0 L 3.25 0 L 3.546875 -2.359375 C 3.554688 -2.398438 3.5625 -2.441406 3.5625 -2.484375 C 3.570312 -2.535156 3.585938 -2.59375 3.609375 -2.65625 L 2.359375 -0.59375 C 2.328125 -0.539062 2.289062 -0.503906 2.25 -0.484375 C 2.207031 -0.460938 2.160156 -0.453125 2.109375 -0.453125 L 2.03125 -0.453125 C 1.976562 -0.453125 1.929688 -0.460938 1.890625 -0.484375 C 1.859375 -0.503906 1.832031 -0.539062 1.8125 -0.59375 L 1.0625 -2.65625 C 1.0625 -2.601562 1.0625 -2.550781 1.0625 -2.5 C 1.0625 -2.445312 1.054688 -2.398438 1.046875 -2.359375 L 0.765625 0 L 0.1875 0 L 0.640625 -3.609375 L 1.125 -3.609375 C 1.15625 -3.609375 1.175781 -3.609375 1.1875 -3.609375 C 1.207031 -3.609375 1.222656 -3.601562 1.234375 -3.59375 C 1.253906 -3.582031 1.269531 -3.570312 1.28125 -3.5625 C 1.300781 -3.550781 1.316406 -3.535156 1.328125 -3.515625 L 2.078125 -1.4375 C 2.109375 -1.351562 2.132812 -1.265625 2.15625 -1.171875 C 2.175781 -1.222656 2.195312 -1.269531 2.21875 -1.3125 C 2.238281 -1.351562 2.265625 -1.394531 2.296875 -1.4375 L 3.546875 -3.515625 C 3.566406 -3.535156 3.582031 -3.550781 3.59375 -3.5625 C 3.613281 -3.570312 3.628906 -3.582031 3.640625 -3.59375 C 3.660156 -3.601562 3.679688 -3.609375 3.703125 -3.609375 C 3.722656 -3.609375 3.75 -3.609375 3.78125 -3.609375 Z M 4.265625 -3.609375 "/></g></g></g><g fill="#272830" fill-opacity="1"><g transform="translate(149.793756, 269.870401)"><g><path d="M 3.625 -2.046875 C 3.625 -1.847656 3.601562 -1.65625 3.5625 -1.46875 C 3.519531 -1.289062 3.457031 -1.125 3.375 -0.96875 C 3.289062 -0.820312 3.191406 -0.6875 3.078125 -0.5625 C 2.960938 -0.4375 2.832031 -0.328125 2.6875 -0.234375 C 2.539062 -0.148438 2.382812 -0.0820312 2.21875 -0.03125 C 2.050781 0.0195312 1.875 0.046875 1.6875 0.046875 C 1.457031 0.046875 1.25 0.00390625 1.0625 -0.078125 C 0.882812 -0.160156 0.726562 -0.273438 0.59375 -0.421875 C 0.46875 -0.566406 0.367188 -0.734375 0.296875 -0.921875 C 0.234375 -1.117188 0.203125 -1.332031 0.203125 -1.5625 C 0.203125 -1.757812 0.222656 -1.945312 0.265625 -2.125 C 0.304688 -2.3125 0.367188 -2.484375 0.453125 -2.640625 C 0.535156 -2.796875 0.632812 -2.9375 0.75 -3.0625 C 0.875 -3.1875 1.003906 -3.289062 1.140625 -3.375 C 1.285156 -3.46875 1.441406 -3.535156 1.609375 -3.578125 C 1.785156 -3.628906 1.960938 -3.65625 2.140625 -3.65625 C 2.378906 -3.65625 2.585938 -3.613281 2.765625 -3.53125 C 2.953125 -3.445312 3.109375 -3.332031 3.234375 -3.1875 C 3.359375 -3.050781 3.453125 -2.882812 3.515625 -2.6875 C 3.585938 -2.488281 3.625 -2.273438 3.625 -2.046875 Z M 2.96875 -2.03125 C 2.96875 -2.195312 2.945312 -2.347656 2.90625 -2.484375 C 2.863281 -2.617188 2.800781 -2.734375 2.71875 -2.828125 C 2.644531 -2.921875 2.550781 -2.992188 2.4375 -3.046875 C 2.332031 -3.097656 2.207031 -3.125 2.0625 -3.125 C 1.882812 -3.125 1.722656 -3.085938 1.578125 -3.015625 C 1.429688 -2.941406 1.304688 -2.835938 1.203125 -2.703125 C 1.097656 -2.566406 1.015625 -2.398438 0.953125 -2.203125 C 0.898438 -2.015625 0.875 -1.804688 0.875 -1.578125 C 0.875 -1.410156 0.890625 -1.257812 0.921875 -1.125 C 0.960938 -1 1.019531 -0.890625 1.09375 -0.796875 C 1.175781 -0.703125 1.269531 -0.628906 1.375 -0.578125 C 1.488281 -0.523438 1.617188 -0.5 1.765625 -0.5 C 1.941406 -0.5 2.101562 -0.535156 2.25 -0.609375 C 2.40625 -0.679688 2.535156 -0.785156 2.640625 -0.921875 C 2.742188 -1.054688 2.820312 -1.21875 2.875 -1.40625 C 2.9375 -1.59375 2.96875 -1.800781 2.96875 -2.03125 Z M 2.96875 -2.03125 "/></g></g></g><g fill="#272830" fill-opacity="1"><g transform="translate(154.158788, 269.870401)"><g><path d="M 2.359375 -2.96875 C 2.328125 -2.9375 2.300781 -2.910156 2.28125 -2.890625 C 2.257812 -2.878906 2.234375 -2.875 2.203125 -2.875 C 2.171875 -2.875 2.132812 -2.882812 2.09375 -2.90625 C 2.0625 -2.9375 2.019531 -2.96875 1.96875 -3 C 1.925781 -3.03125 1.867188 -3.054688 1.796875 -3.078125 C 1.734375 -3.109375 1.65625 -3.125 1.5625 -3.125 C 1.46875 -3.125 1.382812 -3.109375 1.3125 -3.078125 C 1.25 -3.054688 1.191406 -3.019531 1.140625 -2.96875 C 1.097656 -2.925781 1.0625 -2.875 1.03125 -2.8125 C 1.007812 -2.75 1 -2.679688 1 -2.609375 C 1 -2.523438 1.019531 -2.457031 1.0625 -2.40625 C 1.101562 -2.363281 1.15625 -2.320312 1.21875 -2.28125 C 1.28125 -2.238281 1.347656 -2.203125 1.421875 -2.171875 C 1.503906 -2.140625 1.585938 -2.109375 1.671875 -2.078125 C 1.765625 -2.046875 1.847656 -2.007812 1.921875 -1.96875 C 2.003906 -1.925781 2.078125 -1.875 2.140625 -1.8125 C 2.203125 -1.75 2.253906 -1.671875 2.296875 -1.578125 C 2.335938 -1.484375 2.359375 -1.375 2.359375 -1.25 C 2.359375 -1.070312 2.328125 -0.90625 2.265625 -0.75 C 2.203125 -0.59375 2.113281 -0.457031 2 -0.34375 C 1.882812 -0.226562 1.742188 -0.132812 1.578125 -0.0625 C 1.421875 0.0078125 1.242188 0.046875 1.046875 0.046875 C 0.929688 0.046875 0.820312 0.03125 0.71875 0 C 0.625 -0.0195312 0.53125 -0.0507812 0.4375 -0.09375 C 0.351562 -0.132812 0.269531 -0.179688 0.1875 -0.234375 C 0.113281 -0.296875 0.0507812 -0.363281 0 -0.4375 L 0.21875 -0.75 C 0.238281 -0.769531 0.257812 -0.785156 0.28125 -0.796875 C 0.3125 -0.816406 0.34375 -0.828125 0.375 -0.828125 C 0.40625 -0.828125 0.429688 -0.816406 0.453125 -0.796875 C 0.484375 -0.785156 0.515625 -0.765625 0.546875 -0.734375 C 0.578125 -0.710938 0.609375 -0.6875 0.640625 -0.65625 C 0.671875 -0.625 0.707031 -0.597656 0.75 -0.578125 C 0.800781 -0.554688 0.859375 -0.535156 0.921875 -0.515625 C 0.984375 -0.503906 1.050781 -0.5 1.125 -0.5 C 1.3125 -0.5 1.457031 -0.550781 1.5625 -0.65625 C 1.675781 -0.757812 1.734375 -0.90625 1.734375 -1.09375 C 1.734375 -1.175781 1.710938 -1.242188 1.671875 -1.296875 C 1.628906 -1.347656 1.578125 -1.390625 1.515625 -1.421875 C 1.453125 -1.460938 1.378906 -1.5 1.296875 -1.53125 C 1.222656 -1.5625 1.144531 -1.59375 1.0625 -1.625 C 0.976562 -1.65625 0.894531 -1.6875 0.8125 -1.71875 C 0.726562 -1.757812 0.65625 -1.8125 0.59375 -1.875 C 0.53125 -1.945312 0.476562 -2.03125 0.4375 -2.125 C 0.394531 -2.21875 0.375 -2.332031 0.375 -2.46875 C 0.375 -2.625 0.40625 -2.769531 0.46875 -2.90625 C 0.53125 -3.050781 0.613281 -3.175781 0.71875 -3.28125 C 0.820312 -3.394531 0.945312 -3.484375 1.09375 -3.546875 C 1.25 -3.617188 1.425781 -3.65625 1.625 -3.65625 C 1.71875 -3.65625 1.8125 -3.644531 1.90625 -3.625 C 2 -3.601562 2.082031 -3.570312 2.15625 -3.53125 C 2.238281 -3.5 2.3125 -3.457031 2.375 -3.40625 C 2.4375 -3.351562 2.492188 -3.296875 2.546875 -3.234375 Z M 2.359375 -2.96875 "/></g></g></g><g fill="#272830" fill-opacity="1"><g transform="translate(157.336316, 269.870401)"><g/></g></g><g fill="#272830" fill-opacity="1"><g transform="translate(159.031328, 269.870401)"><g><path d="M 2.890625 -3.078125 L 1.90625 -3.078125 L 1.53125 0 L 0.875 0 L 1.25 -3.078125 L 0.265625 -3.078125 L 0.328125 -3.609375 L 2.96875 -3.609375 Z M 2.890625 -3.078125 "/></g></g></g><g fill="#272830" fill-opacity="1"><g transform="translate(162.416356, 269.870401)"><g><path d="M 1.609375 -0.515625 C 1.722656 -0.515625 1.828125 -0.535156 1.921875 -0.578125 C 2.023438 -0.628906 2.113281 -0.691406 2.1875 -0.765625 C 2.257812 -0.847656 2.316406 -0.945312 2.359375 -1.0625 C 2.410156 -1.175781 2.441406 -1.300781 2.453125 -1.4375 L 2.71875 -3.609375 L 3.375 -3.609375 L 3.109375 -1.4375 C 3.078125 -1.226562 3.019531 -1.03125 2.9375 -0.84375 C 2.851562 -0.664062 2.742188 -0.507812 2.609375 -0.375 C 2.472656 -0.25 2.3125 -0.144531 2.125 -0.0625 C 1.945312 0.0078125 1.75 0.046875 1.53125 0.046875 C 1.320312 0.046875 1.132812 0.0078125 0.96875 -0.0625 C 0.800781 -0.144531 0.664062 -0.25 0.5625 -0.375 C 0.46875 -0.507812 0.398438 -0.664062 0.359375 -0.84375 C 0.316406 -1.03125 0.304688 -1.226562 0.328125 -1.4375 L 0.59375 -3.609375 L 1.234375 -3.609375 L 0.96875 -1.4375 C 0.957031 -1.300781 0.957031 -1.175781 0.96875 -1.0625 C 0.988281 -0.945312 1.023438 -0.847656 1.078125 -0.765625 C 1.140625 -0.691406 1.210938 -0.628906 1.296875 -0.578125 C 1.378906 -0.535156 1.484375 -0.515625 1.609375 -0.515625 Z M 1.609375 -0.515625 "/></g></g></g><g fill="#272830" fill-opacity="1"><g transform="translate(166.473891, 269.870401)"><g/></g></g><g fill="#272830" fill-opacity="1"><g transform="translate(168.168904, 269.870401)"><g><path d="M 2.125 -1.359375 L 1.890625 -2.59375 C 1.878906 -2.65625 1.863281 -2.722656 1.84375 -2.796875 C 1.832031 -2.867188 1.820312 -2.953125 1.8125 -3.046875 C 1.78125 -2.953125 1.75 -2.867188 1.71875 -2.796875 C 1.6875 -2.722656 1.65625 -2.65625 1.625 -2.59375 L 1.078125 -1.359375 Z M 3.078125 0 L 2.5625 0 C 2.507812 0 2.46875 -0.0078125 2.4375 -0.03125 C 2.40625 -0.0625 2.382812 -0.0976562 2.375 -0.140625 L 2.21875 -0.90625 L 0.875 -0.90625 L 0.546875 -0.140625 C 0.523438 -0.109375 0.492188 -0.078125 0.453125 -0.046875 C 0.410156 -0.015625 0.363281 0 0.3125 0 L -0.203125 0 L 1.546875 -3.609375 L 2.203125 -3.609375 Z M 3.078125 0 "/></g></g></g><g fill="#272830" fill-opacity="1"><g transform="translate(172.018932, 269.870401)"><g><path d="M 2.046875 -1.796875 L 3.171875 -1.796875 L 3 -0.34375 C 2.8125 -0.21875 2.609375 -0.117188 2.390625 -0.046875 C 2.179688 0.015625 1.941406 0.046875 1.671875 0.046875 C 1.453125 0.046875 1.25 0.00390625 1.0625 -0.078125 C 0.882812 -0.160156 0.726562 -0.269531 0.59375 -0.40625 C 0.46875 -0.550781 0.367188 -0.722656 0.296875 -0.921875 C 0.234375 -1.117188 0.203125 -1.332031 0.203125 -1.5625 C 0.203125 -1.769531 0.222656 -1.960938 0.265625 -2.140625 C 0.316406 -2.328125 0.378906 -2.492188 0.453125 -2.640625 C 0.535156 -2.796875 0.632812 -2.9375 0.75 -3.0625 C 0.875 -3.1875 1.003906 -3.289062 1.140625 -3.375 C 1.285156 -3.46875 1.441406 -3.535156 1.609375 -3.578125 C 1.785156 -3.628906 1.960938 -3.65625 2.140625 -3.65625 C 2.285156 -3.65625 2.414062 -3.640625 2.53125 -3.609375 C 2.65625 -3.585938 2.765625 -3.550781 2.859375 -3.5 C 2.960938 -3.457031 3.050781 -3.40625 3.125 -3.34375 C 3.195312 -3.289062 3.265625 -3.226562 3.328125 -3.15625 L 3.125 -2.890625 C 3.082031 -2.847656 3.035156 -2.820312 2.984375 -2.8125 C 2.941406 -2.800781 2.894531 -2.8125 2.84375 -2.84375 C 2.800781 -2.875 2.753906 -2.90625 2.703125 -2.9375 C 2.648438 -2.96875 2.59375 -2.992188 2.53125 -3.015625 C 2.476562 -3.046875 2.414062 -3.066406 2.34375 -3.078125 C 2.269531 -3.085938 2.1875 -3.09375 2.09375 -3.09375 C 1.914062 -3.09375 1.75 -3.054688 1.59375 -2.984375 C 1.445312 -2.910156 1.316406 -2.804688 1.203125 -2.671875 C 1.097656 -2.546875 1.015625 -2.390625 0.953125 -2.203125 C 0.898438 -2.015625 0.875 -1.804688 0.875 -1.578125 C 0.875 -1.410156 0.894531 -1.257812 0.9375 -1.125 C 0.976562 -0.988281 1.035156 -0.867188 1.109375 -0.765625 C 1.191406 -0.671875 1.289062 -0.597656 1.40625 -0.546875 C 1.519531 -0.503906 1.644531 -0.484375 1.78125 -0.484375 C 1.914062 -0.484375 2.035156 -0.492188 2.140625 -0.515625 C 2.242188 -0.546875 2.34375 -0.582031 2.4375 -0.625 L 2.53125 -1.3125 L 2.125 -1.3125 C 2.082031 -1.3125 2.050781 -1.320312 2.03125 -1.34375 C 2.007812 -1.363281 2 -1.394531 2 -1.4375 Z M 2.046875 -1.796875 "/></g></g></g><g fill="#272830" fill-opacity="1"><g transform="translate(176.00646, 269.870401)"><g><path d="M 1.609375 -0.515625 C 1.722656 -0.515625 1.828125 -0.535156 1.921875 -0.578125 C 2.023438 -0.628906 2.113281 -0.691406 2.1875 -0.765625 C 2.257812 -0.847656 2.316406 -0.945312 2.359375 -1.0625 C 2.410156 -1.175781 2.441406 -1.300781 2.453125 -1.4375 L 2.71875 -3.609375 L 3.375 -3.609375 L 3.109375 -1.4375 C 3.078125 -1.226562 3.019531 -1.03125 2.9375 -0.84375 C 2.851562 -0.664062 2.742188 -0.507812 2.609375 -0.375 C 2.472656 -0.25 2.3125 -0.144531 2.125 -0.0625 C 1.945312 0.0078125 1.75 0.046875 1.53125 0.046875 C 1.320312 0.046875 1.132812 0.0078125 0.96875 -0.0625 C 0.800781 -0.144531 0.664062 -0.25 0.5625 -0.375 C 0.46875 -0.507812 0.398438 -0.664062 0.359375 -0.84375 C 0.316406 -1.03125 0.304688 -1.226562 0.328125 -1.4375 L 0.59375 -3.609375 L 1.234375 -3.609375 L 0.96875 -1.4375 C 0.957031 -1.300781 0.957031 -1.175781 0.96875 -1.0625 C 0.988281 -0.945312 1.023438 -0.847656 1.078125 -0.765625 C 1.140625 -0.691406 1.210938 -0.628906 1.296875 -0.578125 C 1.378906 -0.535156 1.484375 -0.515625 1.609375 -0.515625 Z M 1.609375 -0.515625 "/></g></g></g><g fill="#272830" fill-opacity="1"><g transform="translate(180.063995, 269.870401)"><g><path d="M 2.125 -1.359375 L 1.890625 -2.59375 C 1.878906 -2.65625 1.863281 -2.722656 1.84375 -2.796875 C 1.832031 -2.867188 1.820312 -2.953125 1.8125 -3.046875 C 1.78125 -2.953125 1.75 -2.867188 1.71875 -2.796875 C 1.6875 -2.722656 1.65625 -2.65625 1.625 -2.59375 L 1.078125 -1.359375 Z M 3.078125 0 L 2.5625 0 C 2.507812 0 2.46875 -0.0078125 2.4375 -0.03125 C 2.40625 -0.0625 2.382812 -0.0976562 2.375 -0.140625 L 2.21875 -0.90625 L 0.875 -0.90625 L 0.546875 -0.140625 C 0.523438 -0.109375 0.492188 -0.078125 0.453125 -0.046875 C 0.410156 -0.015625 0.363281 0 0.3125 0 L -0.203125 0 L 1.546875 -3.609375 L 2.203125 -3.609375 Z M 3.078125 0 "/></g></g></g><g fill="#272830" fill-opacity="1"><g transform="translate(183.91402, 269.870401)"><g><path d="M 0.15625 0.609375 C 0.125 0.585938 0.109375 0.554688 0.109375 0.515625 C 0.109375 0.492188 0.117188 0.46875 0.140625 0.4375 C 0.171875 0.40625 0.203125 0.367188 0.234375 0.328125 C 0.273438 0.285156 0.3125 0.234375 0.34375 0.171875 C 0.382812 0.117188 0.414062 0.0625 0.4375 0 C 0.375 0 0.320312 -0.0078125 0.28125 -0.03125 C 0.238281 -0.0507812 0.203125 -0.078125 0.171875 -0.109375 C 0.140625 -0.148438 0.113281 -0.191406 0.09375 -0.234375 C 0.0820312 -0.273438 0.078125 -0.320312 0.078125 -0.375 C 0.078125 -0.425781 0.0820312 -0.472656 0.09375 -0.515625 C 0.113281 -0.554688 0.140625 -0.59375 0.171875 -0.625 C 0.203125 -0.65625 0.238281 -0.675781 0.28125 -0.6875 C 0.332031 -0.707031 0.382812 -0.71875 0.4375 -0.71875 C 0.5 -0.71875 0.550781 -0.707031 0.59375 -0.6875 C 0.644531 -0.664062 0.6875 -0.632812 0.71875 -0.59375 C 0.75 -0.550781 0.769531 -0.503906 0.78125 -0.453125 C 0.800781 -0.398438 0.8125 -0.347656 0.8125 -0.296875 C 0.8125 -0.210938 0.800781 -0.125 0.78125 -0.03125 C 0.757812 0.0507812 0.722656 0.132812 0.671875 0.21875 C 0.628906 0.3125 0.570312 0.398438 0.5 0.484375 C 0.425781 0.566406 0.347656 0.640625 0.265625 0.703125 Z M 0.15625 0.609375 "/></g></g></g><g fill="#272830" fill-opacity="1"><g transform="translate(185.689033, 269.870401)"><g/></g></g><g fill="#272830" fill-opacity="1"><g transform="translate(187.384046, 269.870401)"><g><path d="M 1.71875 -0.515625 C 1.8125 -0.515625 1.894531 -0.519531 1.96875 -0.53125 C 2.050781 -0.550781 2.117188 -0.570312 2.171875 -0.59375 C 2.234375 -0.613281 2.28125 -0.640625 2.3125 -0.671875 C 2.351562 -0.703125 2.390625 -0.726562 2.421875 -0.75 C 2.453125 -0.78125 2.476562 -0.800781 2.5 -0.8125 C 2.519531 -0.832031 2.546875 -0.84375 2.578125 -0.84375 C 2.597656 -0.84375 2.613281 -0.835938 2.625 -0.828125 C 2.632812 -0.816406 2.644531 -0.804688 2.65625 -0.796875 L 2.890625 -0.515625 C 2.734375 -0.335938 2.546875 -0.195312 2.328125 -0.09375 C 2.117188 0 1.878906 0.046875 1.609375 0.046875 C 1.378906 0.046875 1.175781 0.00390625 1 -0.078125 C 0.832031 -0.160156 0.6875 -0.269531 0.5625 -0.40625 C 0.445312 -0.550781 0.359375 -0.71875 0.296875 -0.90625 C 0.234375 -1.09375 0.203125 -1.300781 0.203125 -1.53125 C 0.203125 -1.738281 0.222656 -1.9375 0.265625 -2.125 C 0.316406 -2.3125 0.382812 -2.484375 0.46875 -2.640625 C 0.550781 -2.796875 0.648438 -2.9375 0.765625 -3.0625 C 0.878906 -3.1875 1.003906 -3.289062 1.140625 -3.375 C 1.285156 -3.46875 1.441406 -3.535156 1.609375 -3.578125 C 1.773438 -3.628906 1.945312 -3.65625 2.125 -3.65625 C 2.25 -3.65625 2.363281 -3.640625 2.46875 -3.609375 C 2.582031 -3.585938 2.679688 -3.554688 2.765625 -3.515625 C 2.859375 -3.472656 2.941406 -3.421875 3.015625 -3.359375 C 3.085938 -3.296875 3.148438 -3.226562 3.203125 -3.15625 L 2.984375 -2.890625 C 2.960938 -2.867188 2.941406 -2.847656 2.921875 -2.828125 C 2.898438 -2.816406 2.875 -2.8125 2.84375 -2.8125 C 2.800781 -2.8125 2.765625 -2.828125 2.734375 -2.859375 C 2.703125 -2.890625 2.660156 -2.921875 2.609375 -2.953125 C 2.554688 -2.992188 2.488281 -3.023438 2.40625 -3.046875 C 2.320312 -3.078125 2.21875 -3.09375 2.09375 -3.09375 C 1.914062 -3.09375 1.75 -3.054688 1.59375 -2.984375 C 1.445312 -2.921875 1.316406 -2.820312 1.203125 -2.6875 C 1.097656 -2.5625 1.015625 -2.40625 0.953125 -2.21875 C 0.890625 -2.03125 0.859375 -1.820312 0.859375 -1.59375 C 0.859375 -1.414062 0.878906 -1.257812 0.921875 -1.125 C 0.972656 -1 1.035156 -0.890625 1.109375 -0.796875 C 1.179688 -0.703125 1.269531 -0.628906 1.375 -0.578125 C 1.476562 -0.535156 1.59375 -0.515625 1.71875 -0.515625 Z M 1.71875 -0.515625 "/></g></g></g><g fill="#272830" fill-opacity="1"><g transform="translate(191.086572, 269.870401)"><g><path d="M 1.609375 -0.515625 C 1.722656 -0.515625 1.828125 -0.535156 1.921875 -0.578125 C 2.023438 -0.628906 2.113281 -0.691406 2.1875 -0.765625 C 2.257812 -0.847656 2.316406 -0.945312 2.359375 -1.0625 C 2.410156 -1.175781 2.441406 -1.300781 2.453125 -1.4375 L 2.71875 -3.609375 L 3.375 -3.609375 L 3.109375 -1.4375 C 3.078125 -1.226562 3.019531 -1.03125 2.9375 -0.84375 C 2.851562 -0.664062 2.742188 -0.507812 2.609375 -0.375 C 2.472656 -0.25 2.3125 -0.144531 2.125 -0.0625 C 1.945312 0.0078125 1.75 0.046875 1.53125 0.046875 C 1.320312 0.046875 1.132812 0.0078125 0.96875 -0.0625 C 0.800781 -0.144531 0.664062 -0.25 0.5625 -0.375 C 0.46875 -0.507812 0.398438 -0.664062 0.359375 -0.84375 C 0.316406 -1.03125 0.304688 -1.226562 0.328125 -1.4375 L 0.59375 -3.609375 L 1.234375 -3.609375 L 0.96875 -1.4375 C 0.957031 -1.300781 0.957031 -1.175781 0.96875 -1.0625 C 0.988281 -0.945312 1.023438 -0.847656 1.078125 -0.765625 C 1.140625 -0.691406 1.210938 -0.628906 1.296875 -0.578125 C 1.378906 -0.535156 1.484375 -0.515625 1.609375 -0.515625 Z M 1.609375 -0.515625 "/></g></g></g><g fill="#272830" fill-opacity="1"><g transform="translate(195.144107, 269.870401)"><g><path d="M 0.84375 0 L 0.1875 0 L 0.625 -3.609375 L 1.28125 -3.609375 Z M 0.84375 0 "/></g></g></g><g fill="#272830" fill-opacity="1"><g transform="translate(197.154118, 269.870401)"><g><path d="M 3.40625 -2.046875 C 3.40625 -1.742188 3.351562 -1.46875 3.25 -1.21875 C 3.15625 -0.96875 3.019531 -0.75 2.84375 -0.5625 C 2.675781 -0.382812 2.472656 -0.242188 2.234375 -0.140625 C 2.003906 -0.046875 1.75 0 1.46875 0 L 0.1875 0 L 0.640625 -3.609375 L 1.90625 -3.609375 C 2.132812 -3.609375 2.34375 -3.566406 2.53125 -3.484375 C 2.71875 -3.410156 2.875 -3.304688 3 -3.171875 C 3.125 -3.035156 3.222656 -2.867188 3.296875 -2.671875 C 3.367188 -2.484375 3.40625 -2.273438 3.40625 -2.046875 Z M 2.734375 -2.03125 C 2.734375 -2.195312 2.710938 -2.34375 2.671875 -2.46875 C 2.640625 -2.601562 2.582031 -2.71875 2.5 -2.8125 C 2.425781 -2.90625 2.332031 -2.972656 2.21875 -3.015625 C 2.113281 -3.066406 1.988281 -3.09375 1.84375 -3.09375 L 1.234375 -3.09375 L 0.90625 -0.515625 L 1.53125 -0.515625 C 1.707031 -0.515625 1.867188 -0.550781 2.015625 -0.625 C 2.171875 -0.695312 2.300781 -0.796875 2.40625 -0.921875 C 2.507812 -1.054688 2.585938 -1.21875 2.640625 -1.40625 C 2.703125 -1.59375 2.734375 -1.800781 2.734375 -2.03125 Z M 2.734375 -2.03125 "/></g></g></g><g fill="#272830" fill-opacity="1"><g transform="translate(201.294153, 269.870401)"><g><path d="M 2.125 -1.359375 L 1.890625 -2.59375 C 1.878906 -2.65625 1.863281 -2.722656 1.84375 -2.796875 C 1.832031 -2.867188 1.820312 -2.953125 1.8125 -3.046875 C 1.78125 -2.953125 1.75 -2.867188 1.71875 -2.796875 C 1.6875 -2.722656 1.65625 -2.65625 1.625 -2.59375 L 1.078125 -1.359375 Z M 3.078125 0 L 2.5625 0 C 2.507812 0 2.46875 -0.0078125 2.4375 -0.03125 C 2.40625 -0.0625 2.382812 -0.0976562 2.375 -0.140625 L 2.21875 -0.90625 L 0.875 -0.90625 L 0.546875 -0.140625 C 0.523438 -0.109375 0.492188 -0.078125 0.453125 -0.046875 C 0.410156 -0.015625 0.363281 0 0.3125 0 L -0.203125 0 L 1.546875 -3.609375 L 2.203125 -3.609375 Z M 3.078125 0 "/></g></g></g><g fill="#272830" fill-opacity="1"><g transform="translate(205.14418, 269.870401)"><g><path d="M 4.265625 -3.609375 L 3.828125 0 L 3.25 0 L 3.546875 -2.359375 C 3.554688 -2.398438 3.5625 -2.441406 3.5625 -2.484375 C 3.570312 -2.535156 3.585938 -2.59375 3.609375 -2.65625 L 2.359375 -0.59375 C 2.328125 -0.539062 2.289062 -0.503906 2.25 -0.484375 C 2.207031 -0.460938 2.160156 -0.453125 2.109375 -0.453125 L 2.03125 -0.453125 C 1.976562 -0.453125 1.929688 -0.460938 1.890625 -0.484375 C 1.859375 -0.503906 1.832031 -0.539062 1.8125 -0.59375 L 1.0625 -2.65625 C 1.0625 -2.601562 1.0625 -2.550781 1.0625 -2.5 C 1.0625 -2.445312 1.054688 -2.398438 1.046875 -2.359375 L 0.765625 0 L 0.1875 0 L 0.640625 -3.609375 L 1.125 -3.609375 C 1.15625 -3.609375 1.175781 -3.609375 1.1875 -3.609375 C 1.207031 -3.609375 1.222656 -3.601562 1.234375 -3.59375 C 1.253906 -3.582031 1.269531 -3.570312 1.28125 -3.5625 C 1.300781 -3.550781 1.316406 -3.535156 1.328125 -3.515625 L 2.078125 -1.4375 C 2.109375 -1.351562 2.132812 -1.265625 2.15625 -1.171875 C 2.175781 -1.222656 2.195312 -1.269531 2.21875 -1.3125 C 2.238281 -1.351562 2.265625 -1.394531 2.296875 -1.4375 L 3.546875 -3.515625 C 3.566406 -3.535156 3.582031 -3.550781 3.59375 -3.5625 C 3.613281 -3.570312 3.628906 -3.582031 3.640625 -3.59375 C 3.660156 -3.601562 3.679688 -3.609375 3.703125 -3.609375 C 3.722656 -3.609375 3.75 -3.609375 3.78125 -3.609375 Z M 4.265625 -3.609375 "/></g></g></g><g fill="#272830" fill-opacity="1"><g transform="translate(210.139223, 269.870401)"><g><path d="M 3.625 -2.046875 C 3.625 -1.847656 3.601562 -1.65625 3.5625 -1.46875 C 3.519531 -1.289062 3.457031 -1.125 3.375 -0.96875 C 3.289062 -0.820312 3.191406 -0.6875 3.078125 -0.5625 C 2.960938 -0.4375 2.832031 -0.328125 2.6875 -0.234375 C 2.539062 -0.148438 2.382812 -0.0820312 2.21875 -0.03125 C 2.050781 0.0195312 1.875 0.046875 1.6875 0.046875 C 1.457031 0.046875 1.25 0.00390625 1.0625 -0.078125 C 0.882812 -0.160156 0.726562 -0.273438 0.59375 -0.421875 C 0.46875 -0.566406 0.367188 -0.734375 0.296875 -0.921875 C 0.234375 -1.117188 0.203125 -1.332031 0.203125 -1.5625 C 0.203125 -1.757812 0.222656 -1.945312 0.265625 -2.125 C 0.304688 -2.3125 0.367188 -2.484375 0.453125 -2.640625 C 0.535156 -2.796875 0.632812 -2.9375 0.75 -3.0625 C 0.875 -3.1875 1.003906 -3.289062 1.140625 -3.375 C 1.285156 -3.46875 1.441406 -3.535156 1.609375 -3.578125 C 1.785156 -3.628906 1.960938 -3.65625 2.140625 -3.65625 C 2.378906 -3.65625 2.585938 -3.613281 2.765625 -3.53125 C 2.953125 -3.445312 3.109375 -3.332031 3.234375 -3.1875 C 3.359375 -3.050781 3.453125 -2.882812 3.515625 -2.6875 C 3.585938 -2.488281 3.625 -2.273438 3.625 -2.046875 Z M 2.96875 -2.03125 C 2.96875 -2.195312 2.945312 -2.347656 2.90625 -2.484375 C 2.863281 -2.617188 2.800781 -2.734375 2.71875 -2.828125 C 2.644531 -2.921875 2.550781 -2.992188 2.4375 -3.046875 C 2.332031 -3.097656 2.207031 -3.125 2.0625 -3.125 C 1.882812 -3.125 1.722656 -3.085938 1.578125 -3.015625 C 1.429688 -2.941406 1.304688 -2.835938 1.203125 -2.703125 C 1.097656 -2.566406 1.015625 -2.398438 0.953125 -2.203125 C 0.898438 -2.015625 0.875 -1.804688 0.875 -1.578125 C 0.875 -1.410156 0.890625 -1.257812 0.921875 -1.125 C 0.960938 -1 1.019531 -0.890625 1.09375 -0.796875 C 1.175781 -0.703125 1.269531 -0.628906 1.375 -0.578125 C 1.488281 -0.523438 1.617188 -0.5 1.765625 -0.5 C 1.941406 -0.5 2.101562 -0.535156 2.25 -0.609375 C 2.40625 -0.679688 2.535156 -0.785156 2.640625 -0.921875 C 2.742188 -1.054688 2.820312 -1.21875 2.875 -1.40625 C 2.9375 -1.59375 2.96875 -1.800781 2.96875 -2.03125 Z M 2.96875 -2.03125 "/></g></g></g><g fill="#272830" fill-opacity="1"><g transform="translate(214.504255, 269.870401)"><g><path d="M 2.359375 -2.96875 C 2.328125 -2.9375 2.300781 -2.910156 2.28125 -2.890625 C 2.257812 -2.878906 2.234375 -2.875 2.203125 -2.875 C 2.171875 -2.875 2.132812 -2.882812 2.09375 -2.90625 C 2.0625 -2.9375 2.019531 -2.96875 1.96875 -3 C 1.925781 -3.03125 1.867188 -3.054688 1.796875 -3.078125 C 1.734375 -3.109375 1.65625 -3.125 1.5625 -3.125 C 1.46875 -3.125 1.382812 -3.109375 1.3125 -3.078125 C 1.25 -3.054688 1.191406 -3.019531 1.140625 -2.96875 C 1.097656 -2.925781 1.0625 -2.875 1.03125 -2.8125 C 1.007812 -2.75 1 -2.679688 1 -2.609375 C 1 -2.523438 1.019531 -2.457031 1.0625 -2.40625 C 1.101562 -2.363281 1.15625 -2.320312 1.21875 -2.28125 C 1.28125 -2.238281 1.347656 -2.203125 1.421875 -2.171875 C 1.503906 -2.140625 1.585938 -2.109375 1.671875 -2.078125 C 1.765625 -2.046875 1.847656 -2.007812 1.921875 -1.96875 C 2.003906 -1.925781 2.078125 -1.875 2.140625 -1.8125 C 2.203125 -1.75 2.253906 -1.671875 2.296875 -1.578125 C 2.335938 -1.484375 2.359375 -1.375 2.359375 -1.25 C 2.359375 -1.070312 2.328125 -0.90625 2.265625 -0.75 C 2.203125 -0.59375 2.113281 -0.457031 2 -0.34375 C 1.882812 -0.226562 1.742188 -0.132812 1.578125 -0.0625 C 1.421875 0.0078125 1.242188 0.046875 1.046875 0.046875 C 0.929688 0.046875 0.820312 0.03125 0.71875 0 C 0.625 -0.0195312 0.53125 -0.0507812 0.4375 -0.09375 C 0.351562 -0.132812 0.269531 -0.179688 0.1875 -0.234375 C 0.113281 -0.296875 0.0507812 -0.363281 0 -0.4375 L 0.21875 -0.75 C 0.238281 -0.769531 0.257812 -0.785156 0.28125 -0.796875 C 0.3125 -0.816406 0.34375 -0.828125 0.375 -0.828125 C 0.40625 -0.828125 0.429688 -0.816406 0.453125 -0.796875 C 0.484375 -0.785156 0.515625 -0.765625 0.546875 -0.734375 C 0.578125 -0.710938 0.609375 -0.6875 0.640625 -0.65625 C 0.671875 -0.625 0.707031 -0.597656 0.75 -0.578125 C 0.800781 -0.554688 0.859375 -0.535156 0.921875 -0.515625 C 0.984375 -0.503906 1.050781 -0.5 1.125 -0.5 C 1.3125 -0.5 1.457031 -0.550781 1.5625 -0.65625 C 1.675781 -0.757812 1.734375 -0.90625 1.734375 -1.09375 C 1.734375 -1.175781 1.710938 -1.242188 1.671875 -1.296875 C 1.628906 -1.347656 1.578125 -1.390625 1.515625 -1.421875 C 1.453125 -1.460938 1.378906 -1.5 1.296875 -1.53125 C 1.222656 -1.5625 1.144531 -1.59375 1.0625 -1.625 C 0.976562 -1.65625 0.894531 -1.6875 0.8125 -1.71875 C 0.726562 -1.757812 0.65625 -1.8125 0.59375 -1.875 C 0.53125 -1.945312 0.476562 -2.03125 0.4375 -2.125 C 0.394531 -2.21875 0.375 -2.332031 0.375 -2.46875 C 0.375 -2.625 0.40625 -2.769531 0.46875 -2.90625 C 0.53125 -3.050781 0.613281 -3.175781 0.71875 -3.28125 C 0.820312 -3.394531 0.945312 -3.484375 1.09375 -3.546875 C 1.25 -3.617188 1.425781 -3.65625 1.625 -3.65625 C 1.71875 -3.65625 1.8125 -3.644531 1.90625 -3.625 C 2 -3.601562 2.082031 -3.570312 2.15625 -3.53125 C 2.238281 -3.5 2.3125 -3.457031 2.375 -3.40625 C 2.4375 -3.351562 2.492188 -3.296875 2.546875 -3.234375 Z M 2.359375 -2.96875 "/></g></g></g><g fill="#272830" fill-opacity="1"><g transform="translate(217.681782, 269.870401)"><g/></g></g><g fill="#272830" fill-opacity="1"><g transform="translate(219.376795, 269.870401)"><g><path d="M 2.890625 -3.078125 L 1.90625 -3.078125 L 1.53125 0 L 0.875 0 L 1.25 -3.078125 L 0.265625 -3.078125 L 0.328125 -3.609375 L 2.96875 -3.609375 Z M 2.890625 -3.078125 "/></g></g></g><g fill="#272830" fill-opacity="1"><g transform="translate(222.761823, 269.870401)"><g><path d="M 1.609375 -0.515625 C 1.722656 -0.515625 1.828125 -0.535156 1.921875 -0.578125 C 2.023438 -0.628906 2.113281 -0.691406 2.1875 -0.765625 C 2.257812 -0.847656 2.316406 -0.945312 2.359375 -1.0625 C 2.410156 -1.175781 2.441406 -1.300781 2.453125 -1.4375 L 2.71875 -3.609375 L 3.375 -3.609375 L 3.109375 -1.4375 C 3.078125 -1.226562 3.019531 -1.03125 2.9375 -0.84375 C 2.851562 -0.664062 2.742188 -0.507812 2.609375 -0.375 C 2.472656 -0.25 2.3125 -0.144531 2.125 -0.0625 C 1.945312 0.0078125 1.75 0.046875 1.53125 0.046875 C 1.320312 0.046875 1.132812 0.0078125 0.96875 -0.0625 C 0.800781 -0.144531 0.664062 -0.25 0.5625 -0.375 C 0.46875 -0.507812 0.398438 -0.664062 0.359375 -0.84375 C 0.316406 -1.03125 0.304688 -1.226562 0.328125 -1.4375 L 0.59375 -3.609375 L 1.234375 -3.609375 L 0.96875 -1.4375 C 0.957031 -1.300781 0.957031 -1.175781 0.96875 -1.0625 C 0.988281 -0.945312 1.023438 -0.847656 1.078125 -0.765625 C 1.140625 -0.691406 1.210938 -0.628906 1.296875 -0.578125 C 1.378906 -0.535156 1.484375 -0.515625 1.609375 -0.515625 Z M 1.609375 -0.515625 "/></g></g></g><g fill="#272830" fill-opacity="1"><g transform="translate(226.819358, 269.870401)"><g/></g></g><g fill="#272830" fill-opacity="1"><g transform="translate(228.514371, 269.870401)"><g><path d="M 2.359375 -2.96875 C 2.328125 -2.9375 2.300781 -2.910156 2.28125 -2.890625 C 2.257812 -2.878906 2.234375 -2.875 2.203125 -2.875 C 2.171875 -2.875 2.132812 -2.882812 2.09375 -2.90625 C 2.0625 -2.9375 2.019531 -2.96875 1.96875 -3 C 1.925781 -3.03125 1.867188 -3.054688 1.796875 -3.078125 C 1.734375 -3.109375 1.65625 -3.125 1.5625 -3.125 C 1.46875 -3.125 1.382812 -3.109375 1.3125 -3.078125 C 1.25 -3.054688 1.191406 -3.019531 1.140625 -2.96875 C 1.097656 -2.925781 1.0625 -2.875 1.03125 -2.8125 C 1.007812 -2.75 1 -2.679688 1 -2.609375 C 1 -2.523438 1.019531 -2.457031 1.0625 -2.40625 C 1.101562 -2.363281 1.15625 -2.320312 1.21875 -2.28125 C 1.28125 -2.238281 1.347656 -2.203125 1.421875 -2.171875 C 1.503906 -2.140625 1.585938 -2.109375 1.671875 -2.078125 C 1.765625 -2.046875 1.847656 -2.007812 1.921875 -1.96875 C 2.003906 -1.925781 2.078125 -1.875 2.140625 -1.8125 C 2.203125 -1.75 2.253906 -1.671875 2.296875 -1.578125 C 2.335938 -1.484375 2.359375 -1.375 2.359375 -1.25 C 2.359375 -1.070312 2.328125 -0.90625 2.265625 -0.75 C 2.203125 -0.59375 2.113281 -0.457031 2 -0.34375 C 1.882812 -0.226562 1.742188 -0.132812 1.578125 -0.0625 C 1.421875 0.0078125 1.242188 0.046875 1.046875 0.046875 C 0.929688 0.046875 0.820312 0.03125 0.71875 0 C 0.625 -0.0195312 0.53125 -0.0507812 0.4375 -0.09375 C 0.351562 -0.132812 0.269531 -0.179688 0.1875 -0.234375 C 0.113281 -0.296875 0.0507812 -0.363281 0 -0.4375 L 0.21875 -0.75 C 0.238281 -0.769531 0.257812 -0.785156 0.28125 -0.796875 C 0.3125 -0.816406 0.34375 -0.828125 0.375 -0.828125 C 0.40625 -0.828125 0.429688 -0.816406 0.453125 -0.796875 C 0.484375 -0.785156 0.515625 -0.765625 0.546875 -0.734375 C 0.578125 -0.710938 0.609375 -0.6875 0.640625 -0.65625 C 0.671875 -0.625 0.707031 -0.597656 0.75 -0.578125 C 0.800781 -0.554688 0.859375 -0.535156 0.921875 -0.515625 C 0.984375 -0.503906 1.050781 -0.5 1.125 -0.5 C 1.3125 -0.5 1.457031 -0.550781 1.5625 -0.65625 C 1.675781 -0.757812 1.734375 -0.90625 1.734375 -1.09375 C 1.734375 -1.175781 1.710938 -1.242188 1.671875 -1.296875 C 1.628906 -1.347656 1.578125 -1.390625 1.515625 -1.421875 C 1.453125 -1.460938 1.378906 -1.5 1.296875 -1.53125 C 1.222656 -1.5625 1.144531 -1.59375 1.0625 -1.625 C 0.976562 -1.65625 0.894531 -1.6875 0.8125 -1.71875 C 0.726562 -1.757812 0.65625 -1.8125 0.59375 -1.875 C 0.53125 -1.945312 0.476562 -2.03125 0.4375 -2.125 C 0.394531 -2.21875 0.375 -2.332031 0.375 -2.46875 C 0.375 -2.625 0.40625 -2.769531 0.46875 -2.90625 C 0.53125 -3.050781 0.613281 -3.175781 0.71875 -3.28125 C 0.820312 -3.394531 0.945312 -3.484375 1.09375 -3.546875 C 1.25 -3.617188 1.425781 -3.65625 1.625 -3.65625 C 1.71875 -3.65625 1.8125 -3.644531 1.90625 -3.625 C 2 -3.601562 2.082031 -3.570312 2.15625 -3.53125 C 2.238281 -3.5 2.3125 -3.457031 2.375 -3.40625 C 2.4375 -3.351562 2.492188 -3.296875 2.546875 -3.234375 Z M 2.359375 -2.96875 "/></g></g></g><g fill="#272830" fill-opacity="1"><g transform="translate(231.691898, 269.870401)"><g><path d="M 2.125 -1.359375 L 1.890625 -2.59375 C 1.878906 -2.65625 1.863281 -2.722656 1.84375 -2.796875 C 1.832031 -2.867188 1.820312 -2.953125 1.8125 -3.046875 C 1.78125 -2.953125 1.75 -2.867188 1.71875 -2.796875 C 1.6875 -2.722656 1.65625 -2.65625 1.625 -2.59375 L 1.078125 -1.359375 Z M 3.078125 0 L 2.5625 0 C 2.507812 0 2.46875 -0.0078125 2.4375 -0.03125 C 2.40625 -0.0625 2.382812 -0.0976562 2.375 -0.140625 L 2.21875 -0.90625 L 0.875 -0.90625 L 0.546875 -0.140625 C 0.523438 -0.109375 0.492188 -0.078125 0.453125 -0.046875 C 0.410156 -0.015625 0.363281 0 0.3125 0 L -0.203125 0 L 1.546875 -3.609375 L 2.203125 -3.609375 Z M 3.078125 0 "/></g></g></g><g fill="#272830" fill-opacity="1"><g transform="translate(235.541926, 269.870401)"><g><path d="M 2.21875 -0.53125 L 2.15625 0 L 0.1875 0 L 0.640625 -3.609375 L 1.28125 -3.609375 L 0.90625 -0.53125 Z M 2.21875 -0.53125 "/></g></g></g><g fill="#272830" fill-opacity="1"><g transform="translate(238.55694, 269.870401)"><g><path d="M 1.609375 -0.515625 C 1.722656 -0.515625 1.828125 -0.535156 1.921875 -0.578125 C 2.023438 -0.628906 2.113281 -0.691406 2.1875 -0.765625 C 2.257812 -0.847656 2.316406 -0.945312 2.359375 -1.0625 C 2.410156 -1.175781 2.441406 -1.300781 2.453125 -1.4375 L 2.71875 -3.609375 L 3.375 -3.609375 L 3.109375 -1.4375 C 3.078125 -1.226562 3.019531 -1.03125 2.9375 -0.84375 C 2.851562 -0.664062 2.742188 -0.507812 2.609375 -0.375 C 2.472656 -0.25 2.3125 -0.144531 2.125 -0.0625 C 1.945312 0.0078125 1.75 0.046875 1.53125 0.046875 C 1.320312 0.046875 1.132812 0.0078125 0.96875 -0.0625 C 0.800781 -0.144531 0.664062 -0.25 0.5625 -0.375 C 0.46875 -0.507812 0.398438 -0.664062 0.359375 -0.84375 C 0.316406 -1.03125 0.304688 -1.226562 0.328125 -1.4375 L 0.59375 -3.609375 L 1.234375 -3.609375 L 0.96875 -1.4375 C 0.957031 -1.300781 0.957031 -1.175781 0.96875 -1.0625 C 0.988281 -0.945312 1.023438 -0.847656 1.078125 -0.765625 C 1.140625 -0.691406 1.210938 -0.628906 1.296875 -0.578125 C 1.378906 -0.535156 1.484375 -0.515625 1.609375 -0.515625 Z M 1.609375 -0.515625 "/></g></g></g><g fill="#272830" fill-opacity="1"><g transform="translate(242.614475, 269.870401)"><g><path d="M 3.40625 -2.046875 C 3.40625 -1.742188 3.351562 -1.46875 3.25 -1.21875 C 3.15625 -0.96875 3.019531 -0.75 2.84375 -0.5625 C 2.675781 -0.382812 2.472656 -0.242188 2.234375 -0.140625 C 2.003906 -0.046875 1.75 0 1.46875 0 L 0.1875 0 L 0.640625 -3.609375 L 1.90625 -3.609375 C 2.132812 -3.609375 2.34375 -3.566406 2.53125 -3.484375 C 2.71875 -3.410156 2.875 -3.304688 3 -3.171875 C 3.125 -3.035156 3.222656 -2.867188 3.296875 -2.671875 C 3.367188 -2.484375 3.40625 -2.273438 3.40625 -2.046875 Z M 2.734375 -2.03125 C 2.734375 -2.195312 2.710938 -2.34375 2.671875 -2.46875 C 2.640625 -2.601562 2.582031 -2.71875 2.5 -2.8125 C 2.425781 -2.90625 2.332031 -2.972656 2.21875 -3.015625 C 2.113281 -3.066406 1.988281 -3.09375 1.84375 -3.09375 L 1.234375 -3.09375 L 0.90625 -0.515625 L 1.53125 -0.515625 C 1.707031 -0.515625 1.867188 -0.550781 2.015625 -0.625 C 2.171875 -0.695312 2.300781 -0.796875 2.40625 -0.921875 C 2.507812 -1.054688 2.585938 -1.21875 2.640625 -1.40625 C 2.703125 -1.59375 2.734375 -1.800781 2.734375 -2.03125 Z M 2.734375 -2.03125 "/></g></g></g><g fill="#272830" fill-opacity="1"><g transform="translate(246.754509, 269.870401)"><g><path d="M 0.078125 -0.34375 C 0.078125 -0.394531 0.0859375 -0.441406 0.109375 -0.484375 C 0.128906 -0.535156 0.15625 -0.578125 0.1875 -0.609375 C 0.21875 -0.640625 0.253906 -0.664062 0.296875 -0.6875 C 0.347656 -0.707031 0.398438 -0.71875 0.453125 -0.71875 C 0.503906 -0.71875 0.550781 -0.707031 0.59375 -0.6875 C 0.644531 -0.664062 0.6875 -0.640625 0.71875 -0.609375 C 0.757812 -0.578125 0.789062 -0.535156 0.8125 -0.484375 C 0.832031 -0.441406 0.84375 -0.394531 0.84375 -0.34375 C 0.84375 -0.289062 0.832031 -0.238281 0.8125 -0.1875 C 0.789062 -0.144531 0.757812 -0.101562 0.71875 -0.0625 C 0.6875 -0.03125 0.644531 -0.0078125 0.59375 0 C 0.550781 0.0195312 0.503906 0.03125 0.453125 0.03125 C 0.398438 0.03125 0.347656 0.0195312 0.296875 0 C 0.253906 -0.0078125 0.21875 -0.03125 0.1875 -0.0625 C 0.15625 -0.101562 0.128906 -0.144531 0.109375 -0.1875 C 0.0859375 -0.238281 0.078125 -0.289062 0.078125 -0.34375 Z M 0.078125 -0.34375 "/></g></g></g></svg>